<?xml version="1.0" standalone="no"?>
<!DOCTYPE svg PUBLIC "-//W3C//DTD SVG 1.1//EN"
"http://www.w3.org/Graphics/SVG/1.1/DTD/svg11.dtd">

<svg width="511" height="472" view_box="0 0 511 472"
xmlns="http://www.w3.org/2000/svg"
xmlns:link="http://www.w3.org/1999/xlink">\n\n<desc>Généré par Mocodo 2.3.7 le Fri, 10 Jun 2022 02:14:10</desc>

<rect id="frame" x="0" y="0" width="511" height="472" fill="#f7f7f7" stroke="none" stroke-width="0"/>

<!-- Association belongs to -->
<line x1="257" y1="77" x2="257" y2="186" stroke="#de77ae" stroke-width="2"/>
<text x="262.0" y="153" fill="#4d9221" font-family="Verdana" font-size="12">0,N</text>
<line x1="257" y1="295" x2="257" y2="186" stroke="#de77ae" stroke-width="2"/>
<text x="262.0" y="228" fill="#4d9221" font-family="Verdana" font-size="12">1,1</text>
<g id="association-belongs to">
	<path d="M 282 161 a 14 14 90 0 1 14 14 V 186 h -78 V 175 a 14 14 90 0 1 14 -14" fill="#f1b6da" stroke="#f1b6da" stroke-width="0"/>
	<path d="M 296 186.0 v 11 a 14 14 90 0 1 -14 14 H 232 a 14 14 90 0 1 -14 -14 V 186.0 H 78" fill="#fde0ef" stroke="#fde0ef" stroke-width="0"/>
	<rect x="218" y="161" width="78" height="50" fill="none" rx="14" stroke="#de77ae" stroke-width="2"/>
	<line x1="218" y1="186" x2="296" y2="186" stroke="#de77ae" stroke-width="1"/>
	<text x="225" y="178.7" fill="#000000" font-family="Verdana" font-size="12">belongs to</text>
</g>

<!-- Association defined -->
<line x1="49" y1="295" x2="151" y2="295" stroke="#de77ae" stroke-width="2"/>
<text x="94" y="312.0" fill="#4d9221" font-family="Verdana" font-size="12">0,N</text>
<line x1="257" y1="295" x2="151" y2="295" stroke="#de77ae" stroke-width="2"/>
<text x="191" y="312.0" fill="#4d9221" font-family="Verdana" font-size="12">1,1</text>
<g id="association-defined">
	<path d="M 167 270 a 14 14 90 0 1 14 14 V 295 h -60 V 284 a 14 14 90 0 1 14 -14" fill="#f1b6da" stroke="#f1b6da" stroke-width="0"/>
	<path d="M 181 295.0 v 11 a 14 14 90 0 1 -14 14 H 135 a 14 14 90 0 1 -14 -14 V 295.0 H 60" fill="#fde0ef" stroke="#fde0ef" stroke-width="0"/>
	<rect x="121" y="270" width="60" height="50" fill="none" rx="14" stroke="#de77ae" stroke-width="2"/>
	<line x1="121" y1="295" x2="181" y2="295" stroke="#de77ae" stroke-width="1"/>
	<text x="128" y="287.7" fill="#000000" font-family="Verdana" font-size="12">defined</text>
</g>

<!-- Association create -->
<line x1="49" y1="77" x2="151" y2="77" stroke="#de77ae" stroke-width="2"/>
<text x="94" y="94.0" fill="#4d9221" font-family="Verdana" font-size="12">0,N</text>
<line x1="257" y1="77" x2="151" y2="77" stroke="#de77ae" stroke-width="2"/>
<text x="184" y="94.0" fill="#4d9221" font-family="Verdana" font-size="12">1,1</text>
<g id="association-create">
	<path d="M 164 52 a 14 14 90 0 1 14 14 V 77 h -54 V 66 a 14 14 90 0 1 14 -14" fill="#f1b6da" stroke="#f1b6da" stroke-width="0"/>
	<path d="M 178 77.0 v 11 a 14 14 90 0 1 -14 14 H 138 a 14 14 90 0 1 -14 -14 V 77.0 H 54" fill="#fde0ef" stroke="#fde0ef" stroke-width="0"/>
	<rect x="124" y="52" width="54" height="50" fill="none" rx="14" stroke="#de77ae" stroke-width="2"/>
	<line x1="124" y1="77" x2="178" y2="77" stroke="#de77ae" stroke-width="1"/>
	<text x="131" y="69.7" fill="#000000" font-family="Verdana" font-size="12">create</text>
</g>

<!-- Association owned -->
<line x1="257" y1="77" x2="363" y2="77" stroke="#de77ae" stroke-width="2"/>
<text x="309" y="94.0" fill="#4d9221" font-family="Verdana" font-size="12">1,N</text>
<line x1="462" y1="77" x2="363" y2="77" stroke="#de77ae" stroke-width="2"/>
<text x="395" y="94.0" fill="#4d9221" font-family="Verdana" font-size="12">0,N</text>
<g id="association-owned">
	<path d="M 376 52 a 14 14 90 0 1 14 14 V 77 h -54 V 66 a 14 14 90 0 1 14 -14" fill="#f1b6da" stroke="#f1b6da" stroke-width="0"/>
	<path d="M 390 77.0 v 11 a 14 14 90 0 1 -14 14 H 350 a 14 14 90 0 1 -14 -14 V 77.0 H 54" fill="#fde0ef" stroke="#fde0ef" stroke-width="0"/>
	<rect x="336" y="52" width="54" height="50" fill="none" rx="14" stroke="#de77ae" stroke-width="2"/>
	<line x1="336" y1="77" x2="390" y2="77" stroke="#de77ae" stroke-width="1"/>
	<text x="343" y="69.7" fill="#000000" font-family="Verdana" font-size="12">owned</text>
</g>

<!-- Association belongs -->
<line x1="257" y1="295" x2="257" y2="421" stroke="#de77ae" stroke-width="2"/>
<text x="262.0" y="371" fill="#4d9221" font-family="Verdana" font-size="12">1,1</text>
<line x1="363" y1="421" x2="257" y2="421" stroke="#de77ae" stroke-width="2"/>
<text x="297" y="438.0" fill="#4d9221" font-family="Verdana" font-size="12">0,1</text>
<g id="association-belongs">
	<path d="M 274 396 a 14 14 90 0 1 14 14 V 421 h -62 V 410 a 14 14 90 0 1 14 -14" fill="#f1b6da" stroke="#f1b6da" stroke-width="0"/>
	<path d="M 288 421.0 v 11 a 14 14 90 0 1 -14 14 H 240 a 14 14 90 0 1 -14 -14 V 421.0 H 62" fill="#fde0ef" stroke="#fde0ef" stroke-width="0"/>
	<rect x="226" y="396" width="62" height="50" fill="none" rx="14" stroke="#de77ae" stroke-width="2"/>
	<line x1="226" y1="421" x2="288" y2="421" stroke="#de77ae" stroke-width="1"/>
	<text x="233" y="413.7" fill="#000000" font-family="Verdana" font-size="12">belongs</text>
</g>

<!-- Association has -->
<line x1="257" y1="295" x2="363" y2="295" stroke="#de77ae" stroke-width="2"/>
<text x="302" y="312.0" fill="#4d9221" font-family="Verdana" font-size="12">0,N</text>
<line x1="363" y1="421" x2="363" y2="295" stroke="#de77ae" stroke-width="2"/>
<text x="368.0" y="371" fill="#4d9221" font-family="Verdana" font-size="12">1,1</text>
<g id="association-has">
	<path d="M 367 270 a 14 14 90 0 1 14 14 V 295 h -36 V 284 a 14 14 90 0 1 14 -14" fill="#f1b6da" stroke="#f1b6da" stroke-width="0"/>
	<path d="M 381 295.0 v 11 a 14 14 90 0 1 -14 14 H 359 a 14 14 90 0 1 -14 -14 V 295.0 H 36" fill="#fde0ef" stroke="#fde0ef" stroke-width="0"/>
	<rect x="345" y="270" width="36" height="50" fill="none" rx="14" stroke="#de77ae" stroke-width="2"/>
	<line x1="345" y1="295" x2="381" y2="295" stroke="#de77ae" stroke-width="1"/>
	<text x="352" y="287.7" fill="#000000" font-family="Verdana" font-size="12">has</text>
</g>

<!-- Entity LEVEL -->
<g id="entity-LEVEL">
	<g id="frame-LEVEL">
		<rect x="9" y="253" width="80" height="25" fill="#b8e186" stroke="#b8e186" stroke-width="0"/>
		<rect x="9" y="278.0" width="80" height="59" fill="#e6f5d0" stroke="#e6f5d0" stroke-width="0"/>
		<rect x="9" y="253" width="80" height="84" fill="none" stroke="#7fbc41" stroke-width="2"/>
		<line x1="9" y1="278" x2="89" y2="278" stroke="#7fbc41" stroke-width="1"/>
	</g>
	<text x="30" y="270.7" fill="#000000" font-family="Verdana" font-size="12">LEVEL</text>
	<text x="14" y="295.8" fill="#000000" font-family="Verdana" font-size="12">name</text>
	<line x1="14" y1="298" x2="49" y2="298" stroke="#000000" stroke-width="1"/>
	<text x="14" y="312.8" fill="#000000" font-family="Verdana" font-size="12">created_at</text>
	<text x="14" y="329.8" fill="#000000" font-family="Verdana" font-size="12">updated_at</text>
</g>

<!-- Entity QUESTION -->
<g id="entity-QUESTION">
	<g id="frame-QUESTION">
		<rect x="217" y="236" width="80" height="25" fill="#b8e186" stroke="#b8e186" stroke-width="0"/>
		<rect x="217" y="261.0" width="80" height="93" fill="#e6f5d0" stroke="#e6f5d0" stroke-width="0"/>
		<rect x="217" y="236" width="80" height="118" fill="none" stroke="#7fbc41" stroke-width="2"/>
		<line x1="217" y1="261" x2="297" y2="261" stroke="#7fbc41" stroke-width="1"/>
	</g>
	<text x="224" y="253.7" fill="#000000" font-family="Verdana" font-size="12">QUESTION</text>
	<text x="222" y="278.7" fill="#000000" font-family="Verdana" font-size="12">question</text>
	<line x1="222" y1="281" x2="274" y2="281" stroke="#000000" stroke-width="1"/>
	<text x="222" y="295.8" fill="#000000" font-family="Verdana" font-size="12">anecdote</text>
	<text x="222" y="312.8" fill="#000000" font-family="Verdana" font-size="12">wiki</text>
	<text x="222" y="329.8" fill="#000000" font-family="Verdana" font-size="12">created_at</text>
	<text x="222" y="346.8" fill="#000000" font-family="Verdana" font-size="12">updated_at</text>
</g>

<!-- Entity QUIZ -->
<g id="entity-QUIZ">
	<g id="frame-QUIZ">
		<rect x="210" y="18" width="94" height="25" fill="#b8e186" stroke="#b8e186" stroke-width="0"/>
		<rect x="210" y="43.0" width="94" height="93" fill="#e6f5d0" stroke="#e6f5d0" stroke-width="0"/>
		<rect x="210" y="18" width="94" height="118" fill="none" stroke="#7fbc41" stroke-width="2"/>
		<line x1="210" y1="43" x2="304" y2="43" stroke="#7fbc41" stroke-width="1"/>
	</g>
	<text x="240" y="35.7" fill="#000000" font-family="Verdana" font-size="12">QUIZ</text>
	<text x="215" y="60.7" fill="#000000" font-family="Verdana" font-size="12">title</text>
	<line x1="215" y1="63" x2="239" y2="63" stroke="#000000" stroke-width="1"/>
	<text x="215" y="77.8" fill="#000000" font-family="Verdana" font-size="12">description</text>
	<text x="215" y="94.8" fill="#000000" font-family="Verdana" font-size="12">date_creation</text>
	<text x="215" y="111.8" fill="#000000" font-family="Verdana" font-size="12">created_at</text>
	<text x="215" y="128.8" fill="#000000" font-family="Verdana" font-size="12">updated_at</text>
</g>

<!-- Entity TAG -->
<g id="entity-TAG">
	<g id="frame-TAG">
		<rect x="422" y="35" width="80" height="25" fill="#b8e186" stroke="#b8e186" stroke-width="0"/>
		<rect x="422" y="60.0" width="80" height="59" fill="#e6f5d0" stroke="#e6f5d0" stroke-width="0"/>
		<rect x="422" y="35" width="80" height="84" fill="none" stroke="#7fbc41" stroke-width="2"/>
		<line x1="422" y1="60" x2="502" y2="60" stroke="#7fbc41" stroke-width="1"/>
	</g>
	<text x="449" y="52.7" fill="#000000" font-family="Verdana" font-size="12">TAG</text>
	<text x="427" y="77.8" fill="#000000" font-family="Verdana" font-size="12">name</text>
	<line x1="427" y1="80" x2="462" y2="80" stroke="#000000" stroke-width="1"/>
	<text x="427" y="94.8" fill="#000000" font-family="Verdana" font-size="12">created_at</text>
	<text x="427" y="111.8" fill="#000000" font-family="Verdana" font-size="12">updated_at</text>
</g>

<!-- Entity USER -->
<g id="entity-USER">
	<g id="frame-USER">
		<rect x="9" y="9" width="80" height="25" fill="#b8e186" stroke="#b8e186" stroke-width="0"/>
		<rect x="9" y="34.0" width="80" height="111" fill="#e6f5d0" stroke="#e6f5d0" stroke-width="0"/>
		<rect x="9" y="9" width="80" height="136" fill="none" stroke="#7fbc41" stroke-width="2"/>
		<line x1="9" y1="34" x2="89" y2="34" stroke="#7fbc41" stroke-width="1"/>
	</g>
	<text x="32" y="26.7" fill="#000000" font-family="Verdana" font-size="12">USER</text>
	<text x="14" y="51.7" fill="#000000" font-family="Verdana" font-size="12">email</text>
	<line x1="14" y1="54" x2="48" y2="54" stroke="#000000" stroke-width="1"/>
	<text x="14" y="68.7" fill="#000000" font-family="Verdana" font-size="12">password</text>
	<text x="14" y="85.8" fill="#000000" font-family="Verdana" font-size="12">fistname</text>
	<text x="14" y="102.8" fill="#000000" font-family="Verdana" font-size="12">lastname</text>
	<text x="14" y="119.8" fill="#000000" font-family="Verdana" font-size="12">created_at</text>
	<text x="14" y="136.8" fill="#000000" font-family="Verdana" font-size="12">updated_at</text>
</g>

<!-- Entity ANSWER -->
<g id="entity-ANSWER">
	<g id="frame-ANSWER">
		<rect x="323" y="379" width="80" height="25" fill="#b8e186" stroke="#b8e186" stroke-width="0"/>
		<rect x="323" y="404.0" width="80" height="59" fill="#e6f5d0" stroke="#e6f5d0" stroke-width="0"/>
		<rect x="323" y="379" width="80" height="84" fill="none" stroke="#7fbc41" stroke-width="2"/>
		<line x1="323" y1="404" x2="403" y2="404" stroke="#7fbc41" stroke-width="1"/>
	</g>
	<text x="336" y="396.7" fill="#000000" font-family="Verdana" font-size="12">ANSWER</text>
	<text x="328" y="421.8" fill="#000000" font-family="Verdana" font-size="12">description</text>
	<line x1="328" y1="424" x2="395" y2="424" stroke="#000000" stroke-width="1"/>
	<text x="328" y="438.8" fill="#000000" font-family="Verdana" font-size="12">created_at</text>
	<text x="328" y="455.8" fill="#000000" font-family="Verdana" font-size="12">updated_at</text>
</g>
</svg>