<?xml version="1.0" standalone="no"?>
<!DOCTYPE svg PUBLIC "-//W3C//DTD SVG 1.1//EN"
"http://www.w3.org/Graphics/SVG/1.1/DTD/svg11.dtd">

<svg width="594" height="479" view_box="0 0 594 479"
xmlns="http://www.w3.org/2000/svg"
xmlns:link="http://www.w3.org/1999/xlink">\n\n<desc>Généré par Mocodo 2.3.7 le Thu, 01 Jul 2021 05:35:58</desc>

<rect id="frame" x="0" y="0" width="594" height="479" fill="#f5f5f5" stroke="none" stroke-width="0"/>

<!-- Association valide -->
<line x1="310" y1="244" x2="310" y2="336" stroke="#bf812d" stroke-width="2"/>
<text x="315.0" y="303" fill="#01665e" font-family="Verdana" font-size="12">1,1</text>
<line x1="464" y1="336" x2="310" y2="336" stroke="#bf812d" stroke-width="2"/>
<text x="404" y="353.0" fill="#01665e" font-family="Verdana" font-size="12">0,1</text>
<g id="association-valide">
	<path d="M 322 311 a 14 14 90 0 1 14 14 V 336 h -52 V 325 a 14 14 90 0 1 14 -14" fill="#dfc27d" stroke="#dfc27d" stroke-width="0"/>
	<path d="M 336 336.0 v 11 a 14 14 90 0 1 -14 14 H 298 a 14 14 90 0 1 -14 -14 V 336.0 H 52" fill="#f6e8c3" stroke="#f6e8c3" stroke-width="0"/>
	<rect x="284" y="311" width="52" height="50" fill="none" rx="14" stroke="#bf812d" stroke-width="2"/>
	<line x1="284" y1="336" x2="336" y2="336" stroke="#bf812d" stroke-width="1"/>
	<text x="291" y="328.7" fill="#000000" font-family="Verdana" font-size="12">valide</text>
</g>

<!-- Association concerne -->
<line x1="310" y1="60" x2="464" y2="60" stroke="#bf812d" stroke-width="2"/>
<text x="362" y="77.0" fill="#01665e" font-family="Verdana" font-size="12">1,N</text>
<line x1="558" y1="60" x2="464" y2="60" stroke="#bf812d" stroke-width="2"/>
<text x="504" y="77.0" fill="#01665e" font-family="Verdana" font-size="12">0,N</text>
<g id="association-concerne">
	<path d="M 485 35 a 14 14 90 0 1 14 14 V 60 h -70 V 49 a 14 14 90 0 1 14 -14" fill="#dfc27d" stroke="#dfc27d" stroke-width="0"/>
	<path d="M 499 60.0 v 11 a 14 14 90 0 1 -14 14 H 443 a 14 14 90 0 1 -14 -14 V 60.0 H 70" fill="#f6e8c3" stroke="#f6e8c3" stroke-width="0"/>
	<rect x="429" y="35" width="70" height="50" fill="none" rx="14" stroke="#bf812d" stroke-width="2"/>
	<line x1="429" y1="60" x2="499" y2="60" stroke="#bf812d" stroke-width="1"/>
	<text x="436" y="52.7" fill="#000000" font-family="Verdana" font-size="12">concerne</text>
</g>

<!-- Association crée -->
<line x1="56" y1="60" x2="156" y2="60" stroke="#bf812d" stroke-width="2"/>
<text x="108" y="77.0" fill="#01665e" font-family="Verdana" font-size="12">0,N</text>
<line x1="310" y1="60" x2="156" y2="60" stroke="#bf812d" stroke-width="2"/>
<text x="237" y="77.0" fill="#01665e" font-family="Verdana" font-size="12">1,1</text>
<g id="association-crée">
	<path d="M 163 35 a 14 14 90 0 1 14 14 V 60 h -42 V 49 a 14 14 90 0 1 14 -14" fill="#dfc27d" stroke="#dfc27d" stroke-width="0"/>
	<path d="M 177 60.0 v 11 a 14 14 90 0 1 -14 14 H 149 a 14 14 90 0 1 -14 -14 V 60.0 H 42" fill="#f6e8c3" stroke="#f6e8c3" stroke-width="0"/>
	<rect x="135" y="35" width="42" height="50" fill="none" rx="14" stroke="#bf812d" stroke-width="2"/>
	<line x1="135" y1="60" x2="177" y2="60" stroke="#bf812d" stroke-width="1"/>
	<text x="142" y="52.7" fill="#000000" font-family="Verdana" font-size="12">crée</text>
</g>

<!-- Association association_cardinalites -->
<line x1="156" y1="428" x2="310" y2="428" stroke="#bf812d" stroke-width="2"/>
<text x="204" y="445.0" fill="#01665e" font-family="Verdana" font-size="12">0,N</text>
<line x1="464" y1="428" x2="310" y2="428" stroke="#bf812d" stroke-width="2"/>
<text x="395" y="445.0" fill="#01665e" font-family="Verdana" font-size="12">1,1</text>
<g id="association-association_cardinalites">
	<path d="M 375 403 a 14 14 90 0 1 14 14 V 428 h -158 V 417 a 14 14 90 0 1 14 -14" fill="#dfc27d" stroke="#dfc27d" stroke-width="0"/>
	<path d="M 389 428.0 v 11 a 14 14 90 0 1 -14 14 H 245 a 14 14 90 0 1 -14 -14 V 428.0 H 158" fill="#f6e8c3" stroke="#f6e8c3" stroke-width="0"/>
	<rect x="231" y="403" width="158" height="50" fill="none" rx="14" stroke="#bf812d" stroke-width="2"/>
	<line x1="231" y1="428" x2="389" y2="428" stroke="#bf812d" stroke-width="1"/>
	<text x="238" y="420.7" fill="#000000" font-family="Verdana" font-size="12">association_cardinalites</text>
</g>

<!-- Association définit -->
<line x1="56" y1="244" x2="156" y2="244" stroke="#bf812d" stroke-width="2"/>
<text x="90" y="261.0" fill="#01665e" font-family="Verdana" font-size="12">0,N</text>
<line x1="310" y1="244" x2="156" y2="244" stroke="#bf812d" stroke-width="2"/>
<text x="246" y="261.0" fill="#01665e" font-family="Verdana" font-size="12">1,1</text>
<g id="association-définit">
	<path d="M 169 219 a 14 14 90 0 1 14 14 V 244 h -54 V 233 a 14 14 90 0 1 14 -14" fill="#dfc27d" stroke="#dfc27d" stroke-width="0"/>
	<path d="M 183 244.0 v 11 a 14 14 90 0 1 -14 14 H 143 a 14 14 90 0 1 -14 -14 V 244.0 H 54" fill="#f6e8c3" stroke="#f6e8c3" stroke-width="0"/>
	<rect x="129" y="219" width="54" height="50" fill="none" rx="14" stroke="#bf812d" stroke-width="2"/>
	<line x1="129" y1="244" x2="183" y2="244" stroke="#bf812d" stroke-width="1"/>
	<text x="136" y="236.7" fill="#000000" font-family="Verdana" font-size="12">définit</text>
</g>

<!-- Association a pour possibilité -->
<line x1="310" y1="244" x2="464" y2="244" stroke="#bf812d" stroke-width="2"/>
<text x="353" y="261.0" fill="#01665e" font-family="Verdana" font-size="12">0,N</text>
<line x1="464" y1="336" x2="464" y2="244" stroke="#bf812d" stroke-width="2"/>
<text x="469.0" y="303" fill="#01665e" font-family="Verdana" font-size="12">1,1</text>
<g id="association-a pour possibilité">
	<path d="M 509 219 a 14 14 90 0 1 14 14 V 244 h -118 V 233 a 14 14 90 0 1 14 -14" fill="#dfc27d" stroke="#dfc27d" stroke-width="0"/>
	<path d="M 523 244.0 v 11 a 14 14 90 0 1 -14 14 H 419 a 14 14 90 0 1 -14 -14 V 244.0 H 118" fill="#f6e8c3" stroke="#f6e8c3" stroke-width="0"/>
	<rect x="405" y="219" width="118" height="50" fill="none" rx="14" stroke="#bf812d" stroke-width="2"/>
	<line x1="405" y1="244" x2="523" y2="244" stroke="#bf812d" stroke-width="1"/>
	<text x="412" y="236.7" fill="#000000" font-family="Verdana" font-size="12">a pour possibilité</text>
</g>

<!-- Association possède -->
<line x1="310" y1="60" x2="310" y2="152" stroke="#bf812d" stroke-width="2"/>
<text x="315.0" y="119" fill="#01665e" font-family="Verdana" font-size="12">0,N</text>
<line x1="310" y1="244" x2="310" y2="152" stroke="#bf812d" stroke-width="2"/>
<text x="315.0" y="194" fill="#01665e" font-family="Verdana" font-size="12">1,1</text>
<g id="association-possède">
	<path d="M 328 127 a 14 14 90 0 1 14 14 V 152 h -64 V 141 a 14 14 90 0 1 14 -14" fill="#dfc27d" stroke="#dfc27d" stroke-width="0"/>
	<path d="M 342 152.0 v 11 a 14 14 90 0 1 -14 14 H 292 a 14 14 90 0 1 -14 -14 V 152.0 H 64" fill="#f6e8c3" stroke="#f6e8c3" stroke-width="0"/>
	<rect x="278" y="127" width="64" height="50" fill="none" rx="14" stroke="#bf812d" stroke-width="2"/>
	<line x1="278" y1="152" x2="342" y2="152" stroke="#bf812d" stroke-width="1"/>
	<text x="285" y="144.7" fill="#000000" font-family="Verdana" font-size="12">possède</text>
</g>

<!-- Entity UTILISATEUR -->
<g id="entity-UTILISATEUR">
	<g id="frame-UTILISATEUR">
		<rect x="9" y="9" width="94" height="25" fill="#80cdc1" stroke="#80cdc1" stroke-width="0"/>
		<rect x="9" y="34.0" width="94" height="77" fill="#c7eae5" stroke="#c7eae5" stroke-width="0"/>
		<rect x="9" y="9" width="94" height="102" fill="none" stroke="#35978f" stroke-width="2"/>
		<line x1="9" y1="34" x2="103" y2="34" stroke="#35978f" stroke-width="1"/>
	</g>
	<text x="14" y="26.7" fill="#000000" font-family="Verdana" font-size="12">UTILISATEUR</text>
	<text x="14" y="51.7" fill="#000000" font-family="Verdana" font-size="12">email</text>
	<line x1="14" y1="54" x2="48" y2="54" stroke="#000000" stroke-width="1"/>
	<text x="14" y="68.8" fill="#000000" font-family="Verdana" font-size="12">password</text>
	<text x="14" y="85.8" fill="#000000" font-family="Verdana" font-size="12">nom</text>
	<text x="14" y="102.8" fill="#000000" font-family="Verdana" font-size="12">prenom</text>
</g>

<!-- Entity NIVEAU -->
<g id="entity-NIVEAU">
	<g id="frame-NIVEAU">
		<rect x="27" y="219" width="58" height="25" fill="#80cdc1" stroke="#80cdc1" stroke-width="0"/>
		<rect x="27" y="244.0" width="58" height="25" fill="#c7eae5" stroke="#c7eae5" stroke-width="0"/>
		<rect x="27" y="219" width="58" height="50" fill="none" stroke="#35978f" stroke-width="2"/>
		<line x1="27" y1="244" x2="85" y2="244" stroke="#35978f" stroke-width="1"/>
	</g>
	<text x="32" y="236.7" fill="#000000" font-family="Verdana" font-size="12">NIVEAU</text>
	<text x="32" y="261.8" fill="#000000" font-family="Verdana" font-size="12">nom</text>
	<line x1="32" y1="264" x2="60" y2="264" stroke="#000000" stroke-width="1"/>
</g>

<!-- Entity ENTITE2 -->
<g id="entity-ENTITE2">
	<g id="frame-ENTITE2">
		<rect x="421" y="386" width="86" height="25" fill="#80cdc1" stroke="#80cdc1" stroke-width="0"/>
		<rect x="421" y="411.0" width="86" height="59" fill="#c7eae5" stroke="#c7eae5" stroke-width="0"/>
		<rect x="421" y="386" width="86" height="84" fill="none" stroke="#35978f" stroke-width="2"/>
		<line x1="421" y1="411" x2="507" y2="411" stroke="#35978f" stroke-width="1"/>
	</g>
	<text x="441" y="403.7" fill="#000000" font-family="Verdana" font-size="12">ENTITE</text>
	<text x="426" y="428.8" fill="#000000" font-family="Verdana" font-size="12">discriminant</text>
	<line x1="426" y1="431" x2="501" y2="431" stroke="#000000" stroke-width="1"/>
	<text x="426" y="445.8" fill="#000000" font-family="Verdana" font-size="12">attribut2</text>
	<text x="426" y="462.8" fill="#000000" font-family="Verdana" font-size="12">attribut3</text>
</g>

<!-- Entity QUESTION -->
<g id="entity-QUESTION">
	<g id="frame-QUESTION">
		<rect x="272" y="202" width="76" height="25" fill="#80cdc1" stroke="#80cdc1" stroke-width="0"/>
		<rect x="272" y="227.0" width="76" height="59" fill="#c7eae5" stroke="#c7eae5" stroke-width="0"/>
		<rect x="272" y="202" width="76" height="84" fill="none" stroke="#35978f" stroke-width="2"/>
		<line x1="272" y1="227" x2="348" y2="227" stroke="#35978f" stroke-width="1"/>
	</g>
	<text x="277" y="219.7" fill="#000000" font-family="Verdana" font-size="12">QUESTION</text>
	<text x="277" y="244.8" fill="#000000" font-family="Verdana" font-size="12">libellé</text>
	<line x1="277" y1="247" x2="313" y2="247" stroke="#000000" stroke-width="1"/>
	<text x="277" y="261.8" fill="#000000" font-family="Verdana" font-size="12">anecdote</text>
	<text x="277" y="278.8" fill="#000000" font-family="Verdana" font-size="12">wiki</text>
</g>

<!-- Entity REPONSE -->
<g id="entity-REPONSE">
	<g id="frame-REPONSE">
		<rect x="430" y="311" width="68" height="25" fill="#80cdc1" stroke="#80cdc1" stroke-width="0"/>
		<rect x="430" y="336.0" width="68" height="25" fill="#c7eae5" stroke="#c7eae5" stroke-width="0"/>
		<rect x="430" y="311" width="68" height="50" fill="none" stroke="#35978f" stroke-width="2"/>
		<line x1="430" y1="336" x2="498" y2="336" stroke="#35978f" stroke-width="1"/>
	</g>
	<text x="435" y="328.7" fill="#000000" font-family="Verdana" font-size="12">REPONSE</text>
	<text x="435" y="353.8" fill="#000000" font-family="Verdana" font-size="12">texte</text>
	<line x1="435" y1="356" x2="467" y2="356" stroke="#000000" stroke-width="1"/>
</g>

<!-- Entity QUIZ -->
<g id="entity-QUIZ">
	<g id="frame-QUIZ">
		<rect x="263" y="18" width="94" height="25" fill="#80cdc1" stroke="#80cdc1" stroke-width="0"/>
		<rect x="263" y="43.0" width="94" height="59" fill="#c7eae5" stroke="#c7eae5" stroke-width="0"/>
		<rect x="263" y="18" width="94" height="84" fill="none" stroke="#35978f" stroke-width="2"/>
		<line x1="263" y1="43" x2="357" y2="43" stroke="#35978f" stroke-width="1"/>
	</g>
	<text x="293" y="35.7" fill="#000000" font-family="Verdana" font-size="12">QUIZ</text>
	<text x="268" y="60.8" fill="#000000" font-family="Verdana" font-size="12">titre</text>
	<line x1="268" y1="63" x2="294" y2="63" stroke="#000000" stroke-width="1"/>
	<text x="268" y="77.8" fill="#000000" font-family="Verdana" font-size="12">description</text>
	<text x="268" y="94.8" fill="#000000" font-family="Verdana" font-size="12">date_creation</text>
</g>

<!-- Entity THEME -->
<g id="entity-THEME">
	<g id="frame-THEME">
		<rect x="531" y="35" width="54" height="25" fill="#80cdc1" stroke="#80cdc1" stroke-width="0"/>
		<rect x="531" y="60.0" width="54" height="25" fill="#c7eae5" stroke="#c7eae5" stroke-width="0"/>
		<rect x="531" y="35" width="54" height="50" fill="none" stroke="#35978f" stroke-width="2"/>
		<line x1="531" y1="60" x2="585" y2="60" stroke="#35978f" stroke-width="1"/>
	</g>
	<text x="536" y="52.7" fill="#000000" font-family="Verdana" font-size="12">THEME</text>
	<text x="536" y="77.8" fill="#000000" font-family="Verdana" font-size="12">nom</text>
	<line x1="536" y1="80" x2="564" y2="80" stroke="#000000" stroke-width="1"/>
</g>

<!-- Entity ENTITE -->
<g id="entity-ENTITE">
	<g id="frame-ENTITE">
		<rect x="113" y="386" width="86" height="25" fill="#80cdc1" stroke="#80cdc1" stroke-width="0"/>
		<rect x="113" y="411.0" width="86" height="59" fill="#c7eae5" stroke="#c7eae5" stroke-width="0"/>
		<rect x="113" y="386" width="86" height="84" fill="none" stroke="#35978f" stroke-width="2"/>
		<line x1="113" y1="411" x2="199" y2="411" stroke="#35978f" stroke-width="1"/>
	</g>
	<text x="133" y="403.7" fill="#000000" font-family="Verdana" font-size="12">ENTITE</text>
	<text x="118" y="428.8" fill="#000000" font-family="Verdana" font-size="12">discriminant</text>
	<line x1="118" y1="431" x2="193" y2="431" stroke="#000000" stroke-width="1"/>
	<text x="118" y="445.8" fill="#000000" font-family="Verdana" font-size="12">attribut2</text>
	<text x="118" y="462.8" fill="#000000" font-family="Verdana" font-size="12">attribut3</text>
</g>
</svg>